<svg width="36" height="24" viewBox="0 0 36 24" fill="none" xmlns="http://www.w3.org/2000/svg">
<path d="M36 11.8001C36 11.5224 35.8321 11.1537 35.6617 10.9748L26.0618 0.774561C25.6136 0.31118 24.8875 0.257478 24.3649 0.727759C23.8978 1.14818 23.8861 1.96813 24.3181 2.42468L32.0243 10.5998H1.2C0.537242 10.5998 0 11.1371 0 11.7999C0 12.4626 0.537242 12.9999 1.2 12.9999H32.0243L24.3181 21.1751C23.8862 21.6315 23.9169 22.4313 24.3649 22.8719C24.838 23.337 25.6205 23.2956 26.0618 22.8251L35.6617 12.625C35.9437 12.3483 35.9953 12.0818 36 11.8001Z" fill="#9D2D26"/>
</svg>
