<svg width="40" height="40" viewBox="0 0 40 40" fill="none" xmlns="http://www.w3.org/2000/svg">
<path d="M0 20C0 8.95625 8.955 0 20 0C31.045 0 40 8.955 40 20C40 31.045 31.045 40 20 40C8.955 40 0 31.0438 0 20ZM24.3313 29.32C25.2638 28.3875 25.2638 26.8787 24.3313 25.9463L18.33 20.0138L24.3313 14.0813C25.2638 13.1488 25.2638 11.64 24.3313 10.7075C23.3888 9.78 21.865 9.775 20.9225 10.7075L13.2275 18.33C12.295 19.2575 12.295 20.7712 13.2275 21.7025L20.9225 29.32C21.865 30.2525 23.3888 30.2525 24.3313 29.32Z" fill="white"/>
</svg>
