<svg width="88" height="72" viewBox="0 0 88 72" fill="none" xmlns="http://www.w3.org/2000/svg">
<path d="M86.5 69H79.91C79.986 68.679 80.037 68.348 80.029 68.001L77.875 3.999C77.824 1.8 75.98 0 73.781 0H67.213C65.012 0 63.164 1.8 63.106 3.999L62.076 35C62.076 35 51.775 35 51.5 35C51.225 35 51 34.775 51 34.5C51 34.225 51 32.2 51 30V26C51 24.467 50.256 23.588 49.172 23.588C48.701 23.588 48.166 23.754 47.598 24.105L34.4 32.271C32.529 33.428 30.775 34.516 30.5 34.688C30.402 34.749 30.312 34.777 30.236 34.777C30.094 34.776 30 34.679 30 34.5C30 34.225 30 32.2 30 30V26C30 24.447 29.227 23.55 28.107 23.55C27.64 23.55 27.113 23.706 26.556 24.035L11.443 32.965C9.549 34.084 8 36.8 8 39V68C8 68.347 8.059 68.679 8.143 69H1.498C0.67 69.001 0 69.672 0 70.5C0 71.328 0.67 71.999 1.498 72H86.5C87.328 72 88 71.328 88 70.5C88 69.672 87.328 69 86.5 69ZM11 68V39C11 37.866 11.994 36.124 12.969 35.548L27 27.258V30V34.5C27 36.338 28.422 37.776 30.236 37.776C30.877 37.776 31.517 37.588 32.088 37.232C32.363 37.061 34.113 35.976 35.979 34.821L48 27.384V30V34.5C48 36.43 49.57 38 51.5 38H61.977L60.983 68.001C60.973 68.348 61.022 68.679 61.098 69H12C11.457 69 11 68.542 11 68ZM64.875 69C64.557 69 64.35 68.854 64.23 68.732C64.11 68.61 63.972 68.399 63.98 68.081L66.103 4.08C66.119 3.505 66.636 3 67.212 3H73.78C74.35 3 74.862 3.5 74.876 4.07L77.03 68.071C77.038 68.391 76.895 68.605 76.774 68.729C76.654 68.853 76.443 69 76.125 69H64.875Z" fill="#9D2D26"/>
</svg>
