<svg width="288" height="150" viewBox="0 0 288 150" fill="none" xmlns="http://www.w3.org/2000/svg">
<path d="M133.651 144.178C125.939 144.178 124.411 140.075 123.831 139.646C123.345 140.005 121.674 144.178 114.01 144.178C106.297 144.178 104.769 140.075 104.189 139.646C103.704 140.005 102.032 144.178 94.3687 144.178C86.6562 144.178 85.1281 140.075 84.5481 139.646C84.0626 140.005 82.3912 144.178 74.7275 144.178C67.015 144.178 65.4869 140.075 64.9069 139.646C64.4214 140.005 62.75 144.178 55.0862 144.178C47.3737 144.178 45.8456 140.075 45.2656 139.646C44.7801 140.005 43.1087 144.178 35.445 144.178C27.7325 144.178 26.2044 140.075 25.6244 139.646C25.1389 140.005 23.4675 144.178 15.8037 144.178C12.1133 144.178 8.64562 142.951 7.1753 141.125L4.79077 143.045C6.87499 145.631 11.0944 147.238 15.8037 147.238C19.7392 147.238 23.3325 146.115 25.6244 144.236C27.9148 146.115 31.5081 147.238 35.445 147.238C39.3805 147.238 42.9737 146.115 45.2656 144.236C47.5561 146.115 51.1494 147.238 55.0862 147.238C59.0217 147.238 62.615 146.115 64.9069 144.236C67.1973 146.115 70.7906 147.238 74.7275 147.238C78.663 147.238 82.2562 146.115 84.5481 144.236C86.8386 146.115 90.4319 147.238 94.3687 147.238C98.3042 147.238 101.897 146.115 104.189 144.236C106.48 146.115 110.073 147.238 114.01 147.238C117.945 147.238 121.539 146.115 123.831 144.236C126.121 146.115 129.714 147.238 133.651 147.238C138.359 147.238 142.578 145.631 144.663 143.045L142.281 141.125C140.809 142.95 137.34 144.178 133.651 144.178Z" fill="#56CCF2"/>
<path d="M133.651 135.05C125.939 135.05 124.4 130.939 123.831 130.518C123.352 130.872 121.674 135.05 114.01 135.05C106.297 135.05 104.759 130.939 104.189 130.518C103.711 130.872 102.032 135.05 94.3687 135.05C86.6562 135.05 85.1176 130.939 84.5481 130.518C84.0698 130.872 82.3912 135.05 74.7275 135.05C67.015 135.05 65.4764 130.939 64.9069 130.518C64.4286 130.872 62.75 135.05 55.0862 135.05C47.3737 135.05 45.8351 130.939 45.2656 130.518C44.7873 130.872 43.1087 135.05 35.445 135.05C27.7325 135.05 26.1939 130.939 25.6244 130.518C25.1461 130.872 23.4675 135.05 15.8037 135.05C12.1119 135.05 8.64405 133.824 7.1753 131.998L4.79077 133.916C6.87358 136.503 11.0928 138.11 15.8037 138.11C19.7392 138.11 23.3339 136.987 25.6244 135.109C27.9148 136.988 31.5081 138.11 35.445 138.11C39.3805 138.11 42.9751 136.987 45.2656 135.109C47.5561 136.988 51.1494 138.11 55.0862 138.11C59.0217 138.11 62.6164 136.987 64.9069 135.109C67.1973 136.988 70.7906 138.11 74.7275 138.11C78.663 138.11 82.2576 136.987 84.5481 135.109C86.8386 136.988 90.4319 138.11 94.3687 138.11C98.3042 138.11 101.899 136.987 104.189 135.109C106.48 136.988 110.073 138.11 114.01 138.11C117.945 138.11 121.54 136.987 123.831 135.109C126.121 136.988 129.714 138.11 133.651 138.11C138.359 138.11 142.58 136.503 144.663 133.917L142.281 131.997C140.809 133.824 137.342 135.05 133.651 135.05Z" fill="#56CCF2"/>
<path d="M133.651 126.844C125.939 126.844 124.411 122.741 123.831 122.312C123.345 122.671 121.674 126.844 114.01 126.844C106.297 126.844 104.769 122.741 104.189 122.312C103.704 122.671 102.032 126.844 94.3687 126.844C86.6562 126.844 85.1281 122.741 84.5481 122.312C84.0626 122.671 82.3912 126.844 74.7275 126.844C67.015 126.844 65.4869 122.741 64.9069 122.312C64.4214 122.671 62.75 126.844 55.0862 126.844C47.3737 126.844 45.8456 122.741 45.2656 122.312C44.7801 122.671 43.1087 126.844 35.445 126.844C27.7325 126.844 26.2044 122.741 25.6244 122.312C25.1389 122.671 23.4675 126.844 15.8037 126.844C12.1133 126.844 8.64562 125.617 7.1753 123.791L4.79077 125.711C6.87499 128.297 11.0944 129.904 15.8037 129.904C19.7392 129.904 23.3325 128.781 25.6244 126.902C27.9148 128.781 31.5081 129.904 35.445 129.904C39.3805 129.904 42.9737 128.781 45.2656 126.902C47.5561 128.781 51.1494 129.904 55.0862 129.904C59.0217 129.904 62.615 128.781 64.9069 126.902C67.1973 128.781 70.7906 129.904 74.7275 129.904C78.663 129.904 82.2562 128.781 84.5481 126.902C86.8386 128.781 90.4319 129.904 94.3687 129.904C98.3042 129.904 101.897 128.781 104.189 126.902C106.48 128.781 110.073 129.904 114.01 129.904C117.945 129.904 121.539 128.781 123.831 126.902C126.121 128.781 129.714 129.904 133.651 129.904C138.359 129.904 142.578 128.297 144.663 125.711L142.281 123.791C140.809 125.617 137.34 126.844 133.651 126.844Z" fill="#56CCF2"/>
<path d="M38.9391 123.353V109.277C37.3478 110.593 36.5981 111.465 33.9973 113.99C31.1976 111.282 30.7692 110.807 29.6217 109.798V122.221C30.6162 123.016 32.3144 123.781 35.4508 123.781C36.8889 123.781 38.0364 123.613 38.9391 123.353Z" fill="black"/>
<path d="M120.562 121.501V109.185C118.802 110.623 118.175 111.404 115.498 113.989C112.897 111.465 111.964 110.532 111.245 109.904V123.536C112.025 123.689 112.928 123.781 114.014 123.781C118.022 123.781 119.736 122.465 120.562 121.501Z" fill="black"/>
<path d="M30.0655 59.5539V36.9259H34.0739L35.925 25.3748H21.1611L23.0124 36.9259H27.0055V59.5539H30.0655Z" fill="#747474"/>
<path d="M35.4203 22.3148L28.5355 12.8905L21.6659 22.3148H35.4203Z" fill="#9D2D26"/>
<path d="M53.3053 11.0698L49.5264 7.38266L47.3844 9.58579L51.1788 13.2577L53.3053 11.0698Z" fill="#FFD300"/>
<path d="M49.2664 17.6333H43.9116V20.6931H49.2664V17.6333Z" fill="#FFD300"/>
<path d="M59.4252 25.2678C63.6172 25.2678 67.0136 21.9478 67.0136 17.8475C67.0136 13.7625 63.6172 10.4426 59.4252 10.4426C55.2483 10.4426 51.8519 13.7626 51.8519 17.8475C51.8519 21.9478 55.2483 25.2678 59.4252 25.2678Z" fill="#FFD300"/>
<path d="M60.955 27.7462H57.8951V32.948H60.955V27.7462Z" fill="#FFD300"/>
<path d="M71.4658 27.425L67.6869 23.7531L65.5602 25.9409L69.3392 29.6281L71.4658 27.425Z" fill="#FFD300"/>
<path d="M47.3844 28.7408L49.5264 30.9286L53.3053 27.2567L51.1788 25.0536L47.3844 28.7408Z" fill="#FFD300"/>
<path d="M71.4658 8.27L69.3392 6.08218L65.5602 9.75406L67.6869 11.9572L71.4658 8.27Z" fill="#FFD300"/>
<path d="M74.9541 16.3177H69.5992V19.3775H74.9541V16.3177Z" fill="#FFD300"/>
<path d="M60.955 2.76218H57.8951V7.96405H60.955V2.76218Z" fill="#FFD300"/>
<path d="M72.1027 46.0966C68.2208 44.4934 64.0825 47.3262 64.0825 51.408C77.2689 51.408 87.7496 51.408 100.914 51.408C100.914 46.7895 95.7819 44.1178 92.0163 46.5658C91.5167 41.4966 87.2347 37.5169 82.0291 37.5169C76.9903 37.5169 72.7988 41.2392 72.1027 46.0966Z" fill="#56CCF2"/>
<path d="M12.388 15.9765L15.4373 15.9825C15.4956 15.3303 16.1709 9.61169 21.8245 9.61169V6.55185C17.7711 6.55185 15.3058 8.64138 13.9133 11.0065C12.5192 8.64138 10.0555 6.55185 6.00061 6.55185V9.61169C11.6558 9.61169 12.3311 15.3304 12.388 15.9765Z" fill="black"/>
<path d="M134.492 52.3891H137.543C137.554 52.2494 137.857 48.975 140.926 48.975V45.9152C138.583 45.9152 137.019 46.9334 136.018 48.2205C135.017 46.9333 133.452 45.9152 131.11 45.9152V48.975C134.022 48.9752 134.44 51.8266 134.492 52.3891Z" fill="black"/>
<path d="M82.7069 75.1161L91.0009 62.8059H75.5133L82.7069 75.1161Z" fill="black"/>
<path d="M51.7314 75.1161L60.0254 62.8059H44.5362L51.7314 75.1161Z" fill="black"/>
<path d="M67.2191 75.1161L75.5133 62.8059H60.0255L67.2191 75.1161Z" fill="black"/>
<path d="M36.242 75.1161L44.5362 62.8059H29.0486L36.242 75.1161Z" fill="black"/>
<path d="M20.7544 75.1161L29.0486 62.8059H13.5608L20.7544 75.1161Z" fill="black"/>
<path d="M129.172 75.1162L137.466 62.8059H121.975L129.172 75.1162Z" fill="black"/>
<path d="M98.1946 75.1161L106.489 62.8059H91.001L98.1946 75.1161Z" fill="black"/>
<path d="M1.5625 95.3393L2.89359 95.5229C24.5528 98.4325 33.3008 109.251 33.9822 109.706C34.1591 109.6 47.1352 94.8345 74.7247 94.8345C90.6361 94.8345 105.477 100.006 114.412 108.665L115.482 109.706C115.899 109.428 125.4 98.1372 147.107 95.4006L148.438 95.2323V79.5197H1.5625V95.3393ZM137.728 84.3237H142.318V87.3836H137.728V84.3237ZM125.488 84.3237H130.078V87.3836H125.488V84.3237ZM113.249 84.3237H117.839V87.3836H113.249V84.3237ZM101.009 84.3237H105.599V87.3836H101.009V84.3237ZM88.7695 84.3237H93.3594V87.3836H88.7695V84.3237ZM76.53 84.3237H81.1198V87.3836H76.53V84.3237ZM64.2903 84.3237H68.8802V87.3836H64.2903V84.3237ZM52.0508 84.3237H56.6406V87.3836H52.0508V84.3237ZM39.8113 84.3237H44.4011V87.3836H39.8113V84.3237ZM27.5716 84.3237H32.1614V87.3836H27.5716V84.3237ZM15.332 84.3237H19.9219V87.3836H15.332V84.3237ZM3.0925 84.3237H7.68234V87.3836H3.0925V84.3237Z" fill="black"/>
<path d="M1.5625 76.4603H4.36109L13.5608 62.8059H1.5625V76.4603Z" fill="black"/>
<path d="M113.684 75.1156L121.975 62.8059H106.489L113.684 75.1156Z" fill="black"/>
<path d="M70.0019 76.4603H79.9486L75.328 68.5551L70.0019 76.4603Z" fill="black"/>
<path d="M116.467 76.4603H126.413L121.793 68.5551L116.467 76.4603Z" fill="black"/>
<path d="M8.04953 76.4603H17.9961L13.3755 68.5551L8.04953 76.4603Z" fill="black"/>
<path d="M100.977 76.4603H110.925L106.303 68.5551L100.977 76.4603Z" fill="black"/>
<path d="M131.954 76.4603H141.901L137.28 68.5551L131.954 76.4603Z" fill="black"/>
<path d="M85.4897 76.4603H95.4362L90.8156 68.5551L85.4897 76.4603Z" fill="black"/>
<path d="M23.5372 76.4603H33.4837L28.8633 68.5551L23.5372 76.4603Z" fill="black"/>
<path d="M39.025 76.4603H48.9723L44.3509 68.5551L39.025 76.4603Z" fill="black"/>
<path d="M54.5142 76.4603H64.4608L59.8401 68.5551L54.5142 76.4603Z" fill="black"/>
<g clip-path="url(#clip0)">
<path d="M271.651 144.178C263.939 144.178 262.411 140.075 261.831 139.646C261.345 140.005 259.674 144.178 252.01 144.178C244.297 144.178 242.769 140.075 242.189 139.646C241.704 140.005 240.032 144.178 232.369 144.178C224.656 144.178 223.128 140.075 222.548 139.646C222.063 140.005 220.391 144.178 212.727 144.178C205.015 144.178 203.487 140.075 202.907 139.646C202.421 140.005 200.75 144.178 193.086 144.178C185.374 144.178 183.846 140.075 183.266 139.646C182.78 140.005 181.109 144.178 173.445 144.178C165.732 144.178 164.204 140.075 163.624 139.646C163.139 140.005 161.467 144.178 153.804 144.178C150.113 144.178 146.646 142.951 145.175 141.125L142.791 143.045C144.875 145.631 149.094 147.238 153.804 147.238C157.739 147.238 161.332 146.115 163.624 144.236C165.915 146.115 169.508 147.238 173.445 147.238C177.38 147.238 180.974 146.115 183.266 144.236C185.556 146.115 189.149 147.238 193.086 147.238C197.022 147.238 200.615 146.115 202.907 144.236C205.197 146.115 208.791 147.238 212.727 147.238C216.663 147.238 220.256 146.115 222.548 144.236C224.839 146.115 228.432 147.238 232.369 147.238C236.304 147.238 239.897 146.115 242.189 144.236C244.48 146.115 248.073 147.238 252.01 147.238C255.945 147.238 259.539 146.115 261.831 144.236C264.121 146.115 267.714 147.238 271.651 147.238C276.359 147.238 280.578 145.631 282.663 143.045L280.281 141.125C278.809 142.95 275.34 144.178 271.651 144.178Z" fill="#56CCF2"/>
<path d="M271.651 135.05C263.939 135.05 262.4 130.939 261.831 130.518C261.352 130.872 259.674 135.05 252.01 135.05C244.297 135.05 242.759 130.939 242.189 130.518C241.711 130.872 240.032 135.05 232.369 135.05C224.656 135.05 223.118 130.939 222.548 130.518C222.07 130.872 220.391 135.05 212.727 135.05C205.015 135.05 203.476 130.939 202.907 130.518C202.429 130.872 200.75 135.05 193.086 135.05C185.374 135.05 183.835 130.939 183.266 130.518C182.787 130.872 181.109 135.05 173.445 135.05C165.732 135.05 164.194 130.939 163.624 130.518C163.146 130.872 161.467 135.05 153.804 135.05C150.112 135.05 146.644 133.824 145.175 131.998L142.791 133.916C144.874 136.503 149.093 138.11 153.804 138.11C157.739 138.11 161.334 136.987 163.624 135.109C165.915 136.988 169.508 138.11 173.445 138.11C177.38 138.11 180.975 136.987 183.266 135.109C185.556 136.988 189.149 138.11 193.086 138.11C197.022 138.11 200.616 136.987 202.907 135.109C205.197 136.988 208.791 138.11 212.727 138.11C216.663 138.11 220.258 136.987 222.548 135.109C224.839 136.988 228.432 138.11 232.369 138.11C236.304 138.11 239.899 136.987 242.189 135.109C244.48 136.988 248.073 138.11 252.01 138.11C255.945 138.11 259.54 136.987 261.831 135.109C264.121 136.988 267.714 138.11 271.651 138.11C276.359 138.11 280.58 136.503 282.663 133.917L280.281 131.997C278.809 133.824 275.342 135.05 271.651 135.05Z" fill="#56CCF2"/>
<path d="M271.651 126.844C263.939 126.844 262.411 122.741 261.831 122.312C261.345 122.671 259.674 126.844 252.01 126.844C244.297 126.844 242.769 122.741 242.189 122.312C241.704 122.671 240.032 126.844 232.369 126.844C224.656 126.844 223.128 122.741 222.548 122.312C222.063 122.671 220.391 126.844 212.727 126.844C205.015 126.844 203.487 122.741 202.907 122.312C202.421 122.671 200.75 126.844 193.086 126.844C185.374 126.844 183.846 122.741 183.266 122.312C182.78 122.671 181.109 126.844 173.445 126.844C165.732 126.844 164.204 122.741 163.624 122.312C163.139 122.671 161.467 126.844 153.804 126.844C150.113 126.844 146.646 125.617 145.175 123.791L142.791 125.711C144.875 128.297 149.094 129.904 153.804 129.904C157.739 129.904 161.332 128.781 163.624 126.902C165.915 128.781 169.508 129.904 173.445 129.904C177.38 129.904 180.974 128.781 183.266 126.902C185.556 128.781 189.149 129.904 193.086 129.904C197.022 129.904 200.615 128.781 202.907 126.902C205.197 128.781 208.791 129.904 212.727 129.904C216.663 129.904 220.256 128.781 222.548 126.902C224.839 128.781 228.432 129.904 232.369 129.904C236.304 129.904 239.897 128.781 242.189 126.902C244.48 128.781 248.073 129.904 252.01 129.904C255.945 129.904 259.539 128.781 261.831 126.902C264.121 128.781 267.714 129.904 271.651 129.904C276.359 129.904 280.578 128.297 282.663 125.711L280.281 123.791C278.809 125.617 275.34 126.844 271.651 126.844Z" fill="#56CCF2"/>
<path d="M176.939 123.353V109.277C175.348 110.593 174.598 111.465 171.997 113.99C169.198 111.282 168.769 110.807 167.622 109.798V122.221C168.616 123.016 170.314 123.781 173.451 123.781C174.889 123.781 176.036 123.613 176.939 123.353Z" fill="black"/>
<path d="M258.562 121.501V109.185C256.802 110.623 256.175 111.404 253.498 113.989C250.897 111.465 249.964 110.532 249.245 109.904V123.536C250.025 123.689 250.928 123.781 252.014 123.781C256.022 123.781 257.736 122.465 258.562 121.501Z" fill="black"/>
<path d="M259.464 12.8905L252.595 22.3148H266.349L259.464 12.8905Z" fill="#9D2D26"/>
<path d="M257.935 36.9259V59.5539H260.995V36.9259H264.988L266.854 25.3748H252.09L253.941 36.9259H257.935Z" fill="#747474"/>
<path d="M232.059 17.9772L235.109 17.9817C235.14 17.6276 235.959 9.32123 243.83 9.32123V6.26123C238.385 6.26123 235.239 9.28982 233.585 12.5162C231.931 9.29045 228.783 6.26123 223.338 6.26123V9.32107C231.209 9.32123 232.03 17.6283 232.059 17.9772Z" fill="black"/>
<path d="M210.103 46.0966C206.221 44.4934 202.083 47.3262 202.083 51.408C215.269 51.408 225.75 51.408 238.914 51.408C238.914 46.7895 233.782 44.1178 230.016 46.5658C229.517 41.4966 225.235 37.5169 220.029 37.5169C214.99 37.5169 210.799 41.2392 210.103 46.0966Z" fill="#56CCF2"/>
<path d="M150.388 15.9765L153.437 15.9825C153.496 15.3303 154.171 9.61169 159.825 9.61169V6.55185C155.771 6.55185 153.306 8.64138 151.913 11.0065C150.519 8.64138 148.055 6.55185 144.001 6.55185V9.61169C149.656 9.61169 150.331 15.3304 150.388 15.9765Z" fill="black"/>
<path d="M272.492 52.3891H275.543C275.554 52.2494 275.857 48.975 278.926 48.975V45.9152C276.583 45.9152 275.019 46.9334 274.018 48.2205C273.017 46.9333 271.452 45.9152 269.11 45.9152V48.975C272.022 48.9752 272.44 51.8266 272.492 52.3891Z" fill="black"/>
<path d="M220.707 75.1161L229.001 62.8059H213.513L220.707 75.1161Z" fill="black"/>
<path d="M189.731 75.1161L198.025 62.8059H182.536L189.731 75.1161Z" fill="black"/>
<path d="M205.219 75.1161L213.513 62.8059H198.025L205.219 75.1161Z" fill="black"/>
<path d="M174.242 75.1161L182.536 62.8059H167.049L174.242 75.1161Z" fill="black"/>
<path d="M158.754 75.1161L167.049 62.8059H151.561L158.754 75.1161Z" fill="black"/>
<path d="M144.194 75.1161L152.488 62.8059H137L144.194 75.1161Z" fill="black"/>
<path d="M267.172 75.1162L275.466 62.8059H259.975L267.172 75.1162Z" fill="black"/>
<path d="M236.195 75.1161L244.489 62.8059H229.001L236.195 75.1161Z" fill="black"/>
<path d="M275.466 62.8059L283.445 76.4603H286.437V62.8059H275.466Z" fill="black"/>
<path d="M139.562 95.3393L140.894 95.5229C162.553 98.4325 171.301 109.251 171.982 109.706C172.159 109.6 185.135 94.8345 212.725 94.8345C228.636 94.8345 243.477 100.006 252.412 108.665L253.482 109.706C253.899 109.428 263.4 98.1372 285.107 95.4006L286.438 95.2323V79.5197H139.562V95.3393ZM275.728 84.3237H280.318V87.3836H275.728V84.3237ZM263.488 84.3237H268.078V87.3836H263.488V84.3237ZM251.249 84.3237H255.839V87.3836H251.249V84.3237ZM239.009 84.3237H243.599V87.3836H239.009V84.3237ZM226.77 84.3237H231.359V87.3836H226.77V84.3237ZM214.53 84.3237H219.12V87.3836H214.53V84.3237ZM202.29 84.3237H206.88V87.3836H202.29V84.3237ZM190.051 84.3237H194.641V87.3836H190.051V84.3237ZM177.811 84.3237H182.401V87.3836H177.811V84.3237ZM165.572 84.3237H170.161V87.3836H165.572V84.3237ZM153.332 84.3237H157.922V87.3836H153.332V84.3237ZM141.093 84.3237H145.682V87.3836H141.093V84.3237Z" fill="black"/>
<path d="M251.684 75.1156L259.975 62.8059H244.489L251.684 75.1156Z" fill="black"/>
<path d="M208.002 76.4603H217.949L213.328 68.5551L208.002 76.4603Z" fill="black"/>
<path d="M254.467 76.4603H264.413L259.793 68.5551L254.467 76.4603Z" fill="black"/>
<path d="M146.049 76.4603H155.996L151.375 68.5551L146.049 76.4603Z" fill="black"/>
<path d="M238.977 76.4603H248.925L244.303 68.5551L238.977 76.4603Z" fill="black"/>
<path d="M269.954 76.4603H279.901L275.28 68.5551L269.954 76.4603Z" fill="black"/>
<path d="M223.49 76.4603H233.436L228.816 68.5551L223.49 76.4603Z" fill="black"/>
<path d="M161.537 76.4603H171.484L166.863 68.5551L161.537 76.4603Z" fill="black"/>
<path d="M177.025 76.4603H186.972L182.351 68.5551L177.025 76.4603Z" fill="black"/>
<path d="M192.514 76.4603H202.461L197.84 68.5551L192.514 76.4603Z" fill="black"/>
</g>
<defs>
<clipPath id="clip0">
<rect x="138" width="150" height="150" fill="white"/>
</clipPath>
</defs>
</svg>
