<svg width="66" height="82" viewBox="0 0 66 82" fill="none" xmlns="http://www.w3.org/2000/svg">
<path d="M22.8084 80.5775C23.4033 81.1724 24.1935 81.5 25.035 81.5C25.8765 81.5 26.6667 81.1724 27.2607 80.5775L34.1844 73.6538C34.7793 73.0589 35.1069 72.2687 35.1069 71.4272C35.1069 70.5866 34.7793 69.7955 34.1844 69.2015L34.0845 69.1016L38.9337 64.2524C39.2955 63.8906 39.7959 63.6836 40.3062 63.6836H44.1708C45.8421 63.6836 47.4126 63.0329 48.5943 61.8512L54.2778 56.1677L55.1418 57.0317C56.2137 58.1036 57.6204 58.6391 59.028 58.6391C60.4356 58.6391 61.8432 58.1027 62.9142 57.0317L63.9726 55.9733C66.1146 53.8304 66.1146 50.3438 63.9726 48.2009L63.1077 47.336C65.3442 45.0905 65.3415 41.4437 63.0996 39.2009L47.5071 23.6084C45.2652 21.3665 41.6193 21.3629 39.372 23.5994L30.6825 14.9099C31.5879 10.9697 30.4197 6.83601 27.5361 3.95331C24.0954 0.512615 18.9843 -0.453085 14.5158 1.49361L12.6888 2.28921L19.1355 8.73592L15.6759 12.1955L9.22918 5.74881L8.43358 7.57582C6.48688 12.0452 7.45258 17.1554 10.8933 20.5961C13.7769 23.4797 17.9088 24.6506 21.8499 23.7425L23.7273 25.6208C23.487 25.745 23.2584 25.8935 23.0622 26.0897L19.2507 29.9012C18.069 31.0829 17.4183 32.6534 17.4183 34.3247V41.4392C17.4183 41.9576 17.2167 42.4445 16.8504 42.8117L12.2775 47.3837C11.0652 46.5665 9.31738 46.6817 8.26258 47.7374L1.33888 54.6611C0.743982 55.256 0.416382 56.0462 0.416382 56.8868C0.416382 57.7274 0.743982 58.5185 1.33888 59.1125L22.8084 80.5775ZM62.0547 54.0545L60.9963 55.1129C59.9109 56.1965 58.1469 56.1974 57.0624 55.1129L56.1984 54.2489L61.1907 49.2566L62.0547 50.1206C63.1392 51.2051 63.1383 52.9691 62.0547 54.0545ZM22.6428 20.6915L21.8634 20.9291C18.6522 21.9092 15.1836 21.0443 12.8148 18.6755C10.6728 16.5335 9.77908 13.5491 10.3092 10.6664L15.6768 16.0349L22.9767 8.73501L17.6082 3.36741C20.49 2.83821 23.4753 3.73101 25.6173 5.87301C27.987 8.24271 28.8501 11.7095 27.8709 14.9216L27.6333 15.701L37.4514 25.5191L32.46 30.5105L22.6428 20.6915ZM18.7719 44.7278C19.6512 43.8485 20.1354 42.6794 20.1354 41.4356V34.322C20.1354 33.3761 20.5035 32.4869 21.1722 31.8182L24.9837 28.0067C25.0242 27.9662 25.116 27.9662 25.1574 28.0067L30.8886 33.7379C31.4718 34.3211 32.4888 34.3211 33.072 33.7379L41.2818 25.5281C42.4698 24.3401 44.4012 24.341 45.5874 25.5281L47.6403 27.581L45.6792 29.5421C45.1491 30.0722 45.1491 30.9317 45.6792 31.4618C45.9447 31.7273 46.2912 31.8596 46.6386 31.8596C46.986 31.8596 47.3334 31.7273 47.598 31.4618L49.5591 29.5007L52.8846 32.8262L50.9235 34.7873C50.3934 35.3174 50.3934 36.1769 50.9235 36.707C51.189 36.9725 51.5355 37.1048 51.8829 37.1048C52.2303 37.1048 52.5777 36.9725 52.8423 36.707L54.8034 34.7459L58.1289 38.0714L56.1678 40.0325C55.6377 40.5626 55.6377 41.4221 56.1678 41.9522C56.4333 42.2177 56.7798 42.35 57.1272 42.35C57.4746 42.35 57.822 42.2177 58.0866 41.9522L60.0477 39.9911L61.1799 41.1233C61.755 41.6984 62.0709 42.4625 62.0709 43.2752C62.0709 44.0888 61.7541 44.8529 61.1799 45.428L46.6764 59.9315C46.0077 60.6002 45.1185 60.9683 44.1726 60.9683H40.308C39.0651 60.9683 37.896 61.4525 37.0158 62.3318L32.1666 67.1819L14.2413 49.2584L18.7719 44.7278ZM3.26038 56.5772L10.1841 49.6535C10.2687 49.5689 10.3803 49.5266 10.491 49.5266C10.6017 49.5266 10.7124 49.5689 10.7979 49.6535L32.2647 71.1203C32.4339 71.2895 32.4339 71.5649 32.2647 71.7341L25.341 78.6578C25.1718 78.827 24.8973 78.827 24.7281 78.6578L3.26038 57.191C3.09208 57.0218 3.09208 56.7473 3.26038 56.5772Z" fill="#9D2D26"/>
</svg>
