<svg width="200" height="79" viewBox="0 0 200 79" fill="none" xmlns="http://www.w3.org/2000/svg">
<path d="M26.1653 50.0659L66.8398 12.644L71.9393 8.22363L131.191 60.7838" stroke="#999999" stroke-miterlimit="10"/>
<path d="M13.6594 48.1888L68.9039 9.43469L93.3086 56.8479" stroke="#999999" stroke-miterlimit="10"/>
<path d="M69.511 4.59045L0.910614 47.5832" stroke="#999999" stroke-miterlimit="10"/>
<path d="M68.2968 7.6181L5.16022 48.1888" stroke="#999999" stroke-miterlimit="10"/>
<path d="M68.9039 8.22363L8.8027 48.7943" stroke="#999999" stroke-miterlimit="10"/>
<path d="M76.7352 9.13196L134.165 61.0866" stroke="#999999" stroke-miterlimit="10"/>
<path d="M79.0421 19.9104L112.31 58.7856" stroke="#999999" stroke-miterlimit="10"/>
<path d="M0.607073 47.2805L199.73 67.8685C199.73 67.8685 200.337 68.2319 199.73 68.9585C199.123 69.6851 199.73 70.2907 199.73 70.2907L0.607073 57.5745C0.607073 57.5745 -0.607092 55.1524 0.607073 52.7302C1.82124 50.3081 0.607073 47.2805 0.607073 47.2805Z" fill="#B4B4B4"/>
<path d="M199.73 68.9586C199.123 69.6852 199.73 70.2907 199.73 70.2907L0.607073 57.5746C0.607073 57.5746 -0.607092 55.1524 0.607073 52.7303C1.82124 50.3082 197.909 69.0797 199.73 68.9586Z" fill="#666666"/>
<path d="M1.15346 50.1265L199.73 69.0796L199.427 69.9879L0 54.8496C0 54.8496 0.121417 52.7303 0.667791 52.1247C1.21417 51.5192 1.15346 50.1265 1.15346 50.1265Z" fill="#8C8C8C"/>
<path d="M62.226 61.2077H82.8668L73.1534 13.9762H71.3322L63.683 53.7597L58.9477 53.2752L68.6003 3.3794L75.2782 2.16833L90.4553 72.4101H95.312L97.7403 76.6488H83.1703V72.7128H85.2951L83.4739 64.8409H61.6189L60.4047 72.7128H61.6189V76.346H50.3878V72.4101H55.2445L57.43 61.2077H62.226ZM72.8499 7.61812H71.6357V8.82919H72.8499V7.61812Z" fill="#9D2D26"/>
<path d="M97.8617 76.4066V47.2199H101.686V58.4828H106.422V47.2199H110.246V76.4066H106.422V64.6592H101.686V76.4066H97.8617Z" fill="#9D2D26"/>
<path d="M116.742 76.4066V53.578H112.31V47.2199H125.059V53.578H120.627V76.4066H116.742Z" fill="#9D2D26"/>
<path d="M160.998 76.4066V53.578H156.567V47.2199H169.255V53.578H164.823V76.4066H160.998Z" fill="#9D2D26"/>
<path d="M169.376 76.4066L175.325 47.2199H178.543L184.492 76.4066H180.668L179.514 71.3806H174.293L173.14 76.4066H169.376ZM178.847 66.1731L176.965 55.6368H176.904L175.022 66.1731H178.847Z" fill="#9D2D26"/>
<path d="M185.464 76.4066V47.2199H191.231C192.263 47.2199 193.234 47.341 194.024 47.6438C194.813 47.9465 195.541 48.4915 196.209 49.2182C196.877 50.0054 197.302 50.8531 197.545 51.8825C197.788 52.9119 197.909 54.3046 197.909 56.0607C197.909 57.3928 197.848 58.4828 197.727 59.3911C197.605 60.2994 197.302 61.1471 196.816 61.9343C196.27 62.9032 195.602 63.6298 194.691 64.1748C193.842 64.7198 192.688 64.962 191.231 64.962H189.288V76.346H185.464V76.4066ZM189.288 51.1559V61.0866H191.11C191.899 61.0866 192.506 60.9655 192.931 60.7233C193.356 60.4811 193.659 60.1177 193.841 59.6939C194.024 59.27 194.145 58.7856 194.206 58.18C194.266 57.5745 194.266 56.9084 194.266 56.1818C194.266 55.5157 194.266 54.8496 194.206 54.2441C194.206 53.6386 194.084 53.0936 193.841 52.6091C193.659 52.1247 193.356 51.7614 192.931 51.5192C192.506 51.277 191.96 51.1559 191.231 51.1559H189.288Z" fill="#9D2D26"/>
<path d="M141.147 61.8133C141.147 69.9879 138.051 76.6488 134.165 76.6488C130.28 76.6488 127.184 69.9879 127.184 61.8133C127.184 53.6386 130.28 46.9777 134.165 46.9777C138.051 46.9777 141.147 53.6386 141.147 61.8133ZM134.165 53.3358C132.465 53.3358 131.13 57.1507 131.13 61.8133C131.13 66.4759 132.465 70.2907 134.165 70.2907C135.865 70.2907 137.201 66.4759 137.201 61.8133C137.201 57.1507 135.865 53.3358 134.165 53.3358Z" fill="#9D2D26"/>
<path d="M155.838 67.1419C154.806 72.7128 152.317 76.6488 149.342 76.6488C145.457 76.6488 142.361 69.9879 142.361 61.8133C142.361 53.6386 145.457 46.9777 149.342 46.9777C152.135 46.9777 154.563 50.4898 155.717 55.6368L152.013 57.514C151.467 55.0313 150.496 53.3358 149.403 53.3358C147.703 53.3358 146.368 57.1507 146.368 61.8133C146.368 66.4759 147.703 70.2907 149.403 70.2907C150.678 70.2907 151.771 68.0502 152.256 64.9015L155.838 67.1419Z" fill="#9D2D26"/>
<path d="M47.9595 61.8133C47.9595 69.9879 45.2277 76.6488 41.8887 76.6488C38.5497 76.6488 35.8179 69.9879 35.8179 61.8133C35.8179 53.6386 38.5497 46.9777 41.8887 46.9777C45.2277 46.9777 47.9595 53.6386 47.9595 61.8133ZM41.8887 52.1247C40.1889 52.1247 38.8533 56.4846 38.8533 61.8133C38.8533 67.1419 40.1889 71.5018 41.8887 71.5018C43.5885 71.5018 44.9241 67.1419 44.9241 61.8133C44.9241 56.4846 43.5885 52.1247 41.8887 52.1247Z" fill="#9D2D26"/>
<path d="M34.6037 61.8133C34.6037 69.9879 31.8718 76.6488 28.5329 76.6488C25.1939 76.6488 22.462 69.9879 22.462 61.8133C22.462 53.6386 25.1939 46.9777 28.5329 46.9777C31.8718 46.9777 34.6037 53.6386 34.6037 61.8133ZM28.5329 52.1247C26.833 52.1247 25.4974 56.4846 25.4974 61.8133C25.4974 67.1419 26.833 71.5018 28.5329 71.5018C30.2327 71.5018 31.5683 67.1419 31.5683 61.8133C31.5683 56.4846 30.2327 52.1247 28.5329 52.1247Z" fill="#9D2D26"/>
<path d="M21.2479 61.8133C21.2479 69.9879 18.516 76.6488 15.1771 76.6488C11.8381 76.6488 9.10623 69.9879 9.10623 61.8133C9.10623 53.6386 11.8381 46.9777 15.1771 46.9777C18.516 46.9777 21.2479 53.6386 21.2479 61.8133ZM15.1771 52.1247C13.4772 52.1247 12.1416 56.4846 12.1416 61.8133C12.1416 67.1419 13.4772 71.5018 15.1771 71.5018C16.8769 71.5018 18.2125 67.1419 18.2125 61.8133C18.2125 56.4846 16.8769 52.1247 15.1771 52.1247Z" fill="#9D2D26"/>
<path d="M43.4671 47.8255L76.1889 6.58875L131.433 47.5833" stroke="#999999" stroke-miterlimit="10"/>
</svg>
