<svg width="150" height="150" viewBox="0 0 150 150" fill="none" xmlns="http://www.w3.org/2000/svg">
<path d="M133.651 144.178C125.939 144.178 124.411 140.075 123.831 139.646C123.345 140.005 121.674 144.178 114.01 144.178C106.297 144.178 104.769 140.075 104.189 139.646C103.704 140.005 102.032 144.178 94.3687 144.178C86.6562 144.178 85.1281 140.075 84.5481 139.646C84.0626 140.005 82.3912 144.178 74.7275 144.178C67.015 144.178 65.4869 140.075 64.9069 139.646C64.4214 140.005 62.75 144.178 55.0862 144.178C47.3737 144.178 45.8456 140.075 45.2656 139.646C44.7801 140.005 43.1087 144.178 35.445 144.178C27.7325 144.178 26.2044 140.075 25.6244 139.646C25.1389 140.005 23.4675 144.178 15.8037 144.178C12.1133 144.178 8.64562 142.951 7.1753 141.125L4.79077 143.045C6.87499 145.631 11.0944 147.238 15.8037 147.238C19.7392 147.238 23.3325 146.115 25.6244 144.236C27.9148 146.115 31.5081 147.238 35.445 147.238C39.3805 147.238 42.9737 146.115 45.2656 144.236C47.5561 146.115 51.1494 147.238 55.0862 147.238C59.0217 147.238 62.615 146.115 64.9069 144.236C67.1973 146.115 70.7906 147.238 74.7275 147.238C78.663 147.238 82.2562 146.115 84.5481 144.236C86.8386 146.115 90.4319 147.238 94.3687 147.238C98.3042 147.238 101.897 146.115 104.189 144.236C106.48 146.115 110.073 147.238 114.01 147.238C117.945 147.238 121.539 146.115 123.831 144.236C126.121 146.115 129.714 147.238 133.651 147.238C138.359 147.238 142.578 145.631 144.663 143.045L142.281 141.125C140.809 142.95 137.34 144.178 133.651 144.178Z" fill="#56CCF2"/>
<path d="M133.651 135.05C125.939 135.05 124.4 130.939 123.831 130.518C123.352 130.872 121.674 135.05 114.01 135.05C106.297 135.05 104.759 130.939 104.189 130.518C103.711 130.872 102.032 135.05 94.3687 135.05C86.6562 135.05 85.1176 130.939 84.5481 130.518C84.0698 130.872 82.3912 135.05 74.7275 135.05C67.015 135.05 65.4764 130.939 64.9069 130.518C64.4286 130.872 62.75 135.05 55.0862 135.05C47.3737 135.05 45.8351 130.939 45.2656 130.518C44.7873 130.872 43.1087 135.05 35.445 135.05C27.7325 135.05 26.1939 130.939 25.6244 130.518C25.1461 130.872 23.4675 135.05 15.8037 135.05C12.1119 135.05 8.64405 133.824 7.1753 131.998L4.79077 133.916C6.87358 136.503 11.0928 138.11 15.8037 138.11C19.7392 138.11 23.3339 136.987 25.6244 135.109C27.9148 136.988 31.5081 138.11 35.445 138.11C39.3805 138.11 42.9751 136.987 45.2656 135.109C47.5561 136.988 51.1494 138.11 55.0862 138.11C59.0217 138.11 62.6164 136.987 64.9069 135.109C67.1973 136.988 70.7906 138.11 74.7275 138.11C78.663 138.11 82.2576 136.987 84.5481 135.109C86.8386 136.988 90.4319 138.11 94.3687 138.11C98.3042 138.11 101.899 136.987 104.189 135.109C106.48 136.988 110.073 138.11 114.01 138.11C117.945 138.11 121.54 136.987 123.831 135.109C126.121 136.988 129.714 138.11 133.651 138.11C138.359 138.11 142.58 136.503 144.663 133.917L142.281 131.997C140.809 133.824 137.342 135.05 133.651 135.05Z" fill="#56CCF2"/>
<path d="M133.651 126.844C125.939 126.844 124.411 122.741 123.831 122.312C123.345 122.671 121.674 126.844 114.01 126.844C106.297 126.844 104.769 122.741 104.189 122.312C103.704 122.671 102.032 126.844 94.3687 126.844C86.6562 126.844 85.1281 122.741 84.5481 122.312C84.0626 122.671 82.3912 126.844 74.7275 126.844C67.015 126.844 65.4869 122.741 64.9069 122.312C64.4214 122.671 62.75 126.844 55.0862 126.844C47.3737 126.844 45.8456 122.741 45.2656 122.312C44.7801 122.671 43.1087 126.844 35.445 126.844C27.7325 126.844 26.2044 122.741 25.6244 122.312C25.1389 122.671 23.4675 126.844 15.8037 126.844C12.1133 126.844 8.64562 125.617 7.1753 123.791L4.79077 125.711C6.87499 128.297 11.0944 129.904 15.8037 129.904C19.7392 129.904 23.3325 128.781 25.6244 126.902C27.9148 128.781 31.5081 129.904 35.445 129.904C39.3805 129.904 42.9737 128.781 45.2656 126.902C47.5561 128.781 51.1494 129.904 55.0862 129.904C59.0217 129.904 62.615 128.781 64.9069 126.902C67.1973 128.781 70.7906 129.904 74.7275 129.904C78.663 129.904 82.2562 128.781 84.5481 126.902C86.8386 128.781 90.4319 129.904 94.3687 129.904C98.3042 129.904 101.897 128.781 104.189 126.902C106.48 128.781 110.073 129.904 114.01 129.904C117.945 129.904 121.539 128.781 123.831 126.902C126.121 128.781 129.714 129.904 133.651 129.904C138.359 129.904 142.578 128.297 144.663 125.711L142.281 123.791C140.809 125.617 137.34 126.844 133.651 126.844Z" fill="#56CCF2"/>
<path d="M38.9391 123.353V109.277C37.3478 110.593 36.5981 111.465 33.9973 113.99C31.1976 111.282 30.7692 110.807 29.6217 109.798V122.221C30.6162 123.016 32.3144 123.781 35.4508 123.781C36.8889 123.781 38.0364 123.613 38.9391 123.353Z" fill="black"/>
<path d="M120.562 121.501V109.185C118.802 110.623 118.175 111.404 115.498 113.989C112.897 111.465 111.964 110.532 111.245 109.904V123.536C112.025 123.689 112.928 123.781 114.014 123.781C118.022 123.781 119.736 122.465 120.562 121.501Z" fill="black"/>
<path d="M30.0655 59.5539V36.9259H34.0739L35.925 25.3748H21.1611L23.0124 36.9259H27.0055V59.5539H30.0655Z" fill="#747474"/>
<path d="M35.4203 22.3148L28.5355 12.8905L21.6659 22.3148H35.4203Z" fill="#9D2D26"/>
<path d="M53.3053 11.0698L49.5264 7.38266L47.3844 9.58579L51.1788 13.2577L53.3053 11.0698Z" fill="#FFD300"/>
<path d="M49.2664 17.6333H43.9116V20.6931H49.2664V17.6333Z" fill="#FFD300"/>
<path d="M59.4252 25.2678C63.6172 25.2678 67.0136 21.9478 67.0136 17.8475C67.0136 13.7625 63.6172 10.4426 59.4252 10.4426C55.2483 10.4426 51.8519 13.7626 51.8519 17.8475C51.8519 21.9478 55.2483 25.2678 59.4252 25.2678Z" fill="#FFD300"/>
<path d="M60.955 27.7462H57.8951V32.948H60.955V27.7462Z" fill="#FFD300"/>
<path d="M71.4658 27.425L67.6869 23.7531L65.5602 25.9409L69.3392 29.6281L71.4658 27.425Z" fill="#FFD300"/>
<path d="M47.3844 28.7408L49.5264 30.9286L53.3053 27.2567L51.1788 25.0536L47.3844 28.7408Z" fill="#FFD300"/>
<path d="M71.4658 8.27L69.3392 6.08218L65.5602 9.75406L67.6869 11.9572L71.4658 8.27Z" fill="#FFD300"/>
<path d="M74.9541 16.3177H69.5992V19.3775H74.9541V16.3177Z" fill="#FFD300"/>
<path d="M60.955 2.76218H57.8951V7.96405H60.955V2.76218Z" fill="#FFD300"/>
<path d="M72.1027 46.0966C68.2208 44.4934 64.0825 47.3262 64.0825 51.408C77.2689 51.408 87.7496 51.408 100.914 51.408C100.914 46.7895 95.7819 44.1178 92.0163 46.5658C91.5167 41.4966 87.2347 37.5169 82.0291 37.5169C76.9903 37.5169 72.7988 41.2392 72.1027 46.0966Z" fill="#56CCF2"/>
<path d="M12.388 15.9765L15.4373 15.9825C15.4956 15.3303 16.1709 9.61169 21.8245 9.61169V6.55185C17.7711 6.55185 15.3058 8.64138 13.9133 11.0065C12.5192 8.64138 10.0555 6.55185 6.00061 6.55185V9.61169C11.6558 9.61169 12.3311 15.3304 12.388 15.9765Z" fill="black"/>
<path d="M134.492 52.3891H137.543C137.554 52.2494 137.857 48.975 140.926 48.975V45.9152C138.583 45.9152 137.019 46.9334 136.018 48.2205C135.017 46.9333 133.452 45.9152 131.11 45.9152V48.975C134.022 48.9752 134.44 51.8266 134.492 52.3891Z" fill="black"/>
<path d="M82.7069 75.1161L91.0009 62.8059H75.5133L82.7069 75.1161Z" fill="black"/>
<path d="M51.7314 75.1161L60.0254 62.8059H44.5362L51.7314 75.1161Z" fill="black"/>
<path d="M67.2191 75.1161L75.5133 62.8059H60.0255L67.2191 75.1161Z" fill="black"/>
<path d="M36.242 75.1161L44.5362 62.8059H29.0486L36.242 75.1161Z" fill="black"/>
<path d="M20.7544 75.1161L29.0486 62.8059H13.5608L20.7544 75.1161Z" fill="black"/>
<path d="M129.172 75.1162L137.466 62.8059H121.975L129.172 75.1162Z" fill="black"/>
<path d="M98.1946 75.1161L106.489 62.8059H91.001L98.1946 75.1161Z" fill="black"/>
<path d="M1.5625 95.3393L2.89359 95.5229C24.5528 98.4325 33.3008 109.251 33.9822 109.706C34.1591 109.6 47.1352 94.8345 74.7247 94.8345C90.6361 94.8345 105.477 100.006 114.412 108.665L115.482 109.706C115.899 109.428 125.4 98.1372 147.107 95.4006L148.438 95.2323V79.5197H1.5625V95.3393ZM137.728 84.3237H142.318V87.3836H137.728V84.3237ZM125.488 84.3237H130.078V87.3836H125.488V84.3237ZM113.249 84.3237H117.839V87.3836H113.249V84.3237ZM101.009 84.3237H105.599V87.3836H101.009V84.3237ZM88.7695 84.3237H93.3594V87.3836H88.7695V84.3237ZM76.53 84.3237H81.1198V87.3836H76.53V84.3237ZM64.2903 84.3237H68.8802V87.3836H64.2903V84.3237ZM52.0508 84.3237H56.6406V87.3836H52.0508V84.3237ZM39.8112 84.3237H44.4011V87.3836H39.8112V84.3237ZM27.5716 84.3237H32.1614V87.3836H27.5716V84.3237ZM15.332 84.3237H19.9219V87.3836H15.332V84.3237ZM3.0925 84.3237H7.68234V87.3836H3.0925V84.3237Z" fill="black"/>
<path d="M1.5625 76.4603H4.36109L13.5608 62.8059H1.5625V76.4603Z" fill="black"/>
<path d="M113.684 75.1156L121.975 62.8059H106.489L113.684 75.1156Z" fill="black"/>
<path d="M70.0019 76.4603H79.9486L75.328 68.5551L70.0019 76.4603Z" fill="black"/>
<path d="M116.467 76.4603H126.413L121.793 68.5551L116.467 76.4603Z" fill="black"/>
<path d="M8.04953 76.4603H17.9961L13.3755 68.5551L8.04953 76.4603Z" fill="black"/>
<path d="M100.977 76.4603H110.925L106.303 68.5551L100.977 76.4603Z" fill="black"/>
<path d="M131.954 76.4603H141.901L137.28 68.5551L131.954 76.4603Z" fill="black"/>
<path d="M85.4897 76.4603H95.4362L90.8156 68.5551L85.4897 76.4603Z" fill="black"/>
<path d="M23.5372 76.4603H33.4837L28.8633 68.5551L23.5372 76.4603Z" fill="black"/>
<path d="M39.025 76.4603H48.9723L44.3509 68.5551L39.025 76.4603Z" fill="black"/>
<path d="M54.5142 76.4603H64.4608L59.8401 68.5551L54.5142 76.4603Z" fill="black"/>
</svg>
