<svg width="50" height="76" viewBox="0 0 50 76" fill="none" xmlns="http://www.w3.org/2000/svg">
<path d="M49.3042 27.325L31.0372 15.1469C30.8081 12.1769 30.3988 9.44812 29.8305 7.17516C28.7077 2.68359 27.1273 0.5 25 0.5C23.5455 0.5 21.5367 1.22047 20.2258 4.65313C19.3016 7.07297 18.808 10.648 18.7553 15.2853L0.695782 27.325C0.261094 27.6147 0 28.1027 0 28.625V73.9375C0 74.8003 0.699688 75.5 1.5625 75.5H48.4375C49.3005 75.5 50 74.8003 50 73.9375V28.625C50 28.1027 49.7391 27.6147 49.3042 27.325ZM24.9223 3.62891C25.1142 3.77359 26.0809 4.67906 26.9709 8.66172C27.2578 9.94531 27.4944 11.3764 27.6775 12.9072L25.8666 11.6998C25.342 11.35 24.6581 11.35 24.1331 11.6998L21.9409 13.1614C22.2834 5.90094 23.8836 3.73141 24.9223 3.62891ZM46.875 72.375H3.125V29.4613C5.82422 27.6617 21.3845 17.2881 25 14.878L28.0188 16.8905C28.283 21.7414 28.0688 27.408 27.1592 32.0561C22.1777 30.6205 17.1875 34.3709 17.1875 39.5625C17.1875 43.8703 20.6922 47.375 25 47.375C29.3078 47.375 32.8125 43.8703 32.8125 39.5625C32.8125 37.17 31.7305 35.0264 30.0313 33.5922C31.0372 29.0642 31.3355 23.6502 31.2289 19.0305L46.875 29.4613V72.375ZM29.6875 39.5625C29.6875 42.1472 27.5848 44.25 25 44.25C22.4153 44.25 20.3125 42.1472 20.3125 39.5625C20.3125 36.4089 23.387 34.1397 26.4062 35.0908C25.6942 37.3353 25.0487 37.9044 24.9139 38.0023C24.0911 38.047 23.4375 38.7284 23.4375 39.5625C23.4375 40.4253 24.1372 41.125 25 41.125C26.6497 41.125 27.9702 39.8111 29.0036 37.1269C29.4372 37.8372 29.6875 38.6711 29.6875 39.5625Z" fill="#9D2D26"/>
</svg>
