<svg width="66" height="76" viewBox="0 0 66 76" fill="none" xmlns="http://www.w3.org/2000/svg">
<path d="M22.4825 44.25H21.75C21.65 44.25 21.5613 44.285 21.4675 44.3075C21.295 44.3188 21.1225 44.3387 20.95 44.3538C20.7425 44.3725 20.5375 44.3988 20.3312 44.4225C19.8387 44.4813 19.3487 44.5563 18.86 44.6475C18.6637 44.6838 18.4662 44.7163 18.2712 44.7588C17.635 44.895 17.0037 45.0512 16.3813 45.2425C16.375 45.2437 16.3712 45.2487 16.365 45.25C7.18875 48.0887 0.5 56.6512 0.5 66.75V74.25C0.5 74.94 1.05875 75.5 1.75 75.5H64.25C64.9413 75.5 65.5 74.94 65.5 74.25V66.75C65.5 56.6512 58.8112 48.0887 49.6338 45.25C49.6275 45.2475 49.6237 45.2437 49.6175 45.2425C48.9937 45.0512 48.3625 44.895 47.7275 44.7588C47.5325 44.7175 47.335 44.685 47.1388 44.6475C46.6513 44.5563 46.1612 44.4813 45.6675 44.4225C45.4613 44.3975 45.2562 44.3725 45.0488 44.3538C44.8763 44.3375 44.705 44.3188 44.5312 44.3075C44.4387 44.285 44.35 44.25 44.25 44.25H43.5175L40.5 41.2325V39.9012C45.6925 37.1862 49.25 31.755 49.25 25.5H50.5C51.1912 25.5 51.75 24.94 51.75 24.25V21.75C51.75 14.335 47.2637 7.54375 40.5 4.58125V1.75C40.5 1.06 39.9412 0.5 39.25 0.5H26.75C26.0588 0.5 25.5 1.06 25.5 1.75V4.58125C18.7362 7.54375 14.25 14.335 14.25 21.75V24.25C14.25 24.94 14.8088 25.5 15.5 25.5H16.75C16.75 31.755 20.3075 37.1862 25.5 39.9012V41.2325L22.4825 44.25ZM46.2338 47.0363C46.7325 47.1175 47.2288 47.21 47.7213 47.3288C47.815 47.3512 47.9062 47.3813 48 47.4062V64.25C48 64.7237 48.2675 65.1562 48.6913 65.3688L53 67.5225V73H13V67.5225L17.3088 65.3675C17.7325 65.1562 18 64.7237 18 64.25V47.405C18.0938 47.3812 18.185 47.3513 18.2787 47.3275C18.77 47.2088 19.2675 47.1162 19.7663 47.035C19.9813 47 20.1925 46.9525 20.4113 46.9238C20.4413 46.92 20.4712 46.92 20.5012 46.9162V64.25C20.5012 64.94 21.06 65.5 21.7512 65.5H44.2513C44.9425 65.5 45.5013 64.94 45.5013 64.25V46.9175C45.5312 46.9212 45.5613 46.9212 45.5913 46.925C45.8075 46.9538 46.0188 47 46.2338 47.0363ZM43 47.0625V63H23V47.0625L32.25 54C32.4725 54.1662 32.7363 54.25 33 54.25C33.2637 54.25 33.5275 54.1662 33.75 54L43 47.0625ZM3 66.75C3 58.3763 8.1825 51.2062 15.5 48.23V63.4762L13 64.7262V58H10.5V73H3V66.75ZM63 66.75V73H55.5V58H53V64.7275L50.5 63.4775V48.23C57.8175 51.2062 63 58.3763 63 66.75ZM16.75 21.75C16.75 15.6075 20.3087 9.96625 25.745 7.2375L26.7625 14.425L29.2375 14.075L28 5.33V3H31.75V8H34.25V3H38V5.33L36.7625 14.0738L39.2375 14.4237L40.255 7.23625C45.6912 9.96625 49.25 15.6075 49.25 21.75V23H47.9363H18.0638H16.75V21.75ZM19.25 25.5H46.75C46.75 31.05 43.4388 35.8312 38.6925 38.0013C35.0675 39.6562 30.9325 39.6562 27.3062 38.0013C22.5612 35.8312 19.25 31.05 19.25 25.5ZM28.7738 41.1725C28.9887 41.2312 29.2037 41.29 29.42 41.3388C29.6537 41.3913 29.89 41.4362 30.1287 41.48C30.3925 41.5275 30.6562 41.5675 30.9212 41.6012C31.1337 41.6287 31.3463 41.6575 31.5613 41.6763C31.9525 41.7113 32.3438 41.7287 32.7362 41.7362C32.825 41.7375 32.9113 41.75 33 41.75C33.0887 41.75 33.175 41.7375 33.2637 41.7362C33.6562 41.73 34.0475 41.7113 34.4388 41.6763C34.6538 41.6575 34.8662 41.6287 35.0787 41.6012C35.3437 41.5675 35.6075 41.5275 35.8713 41.48C36.1087 41.4375 36.345 41.3925 36.58 41.3388C36.7975 41.29 37.0112 41.23 37.2262 41.1725C37.485 41.1025 37.7463 41.0362 38 40.955V41.75C38 42.0812 38.1312 42.4 38.3662 42.6338L41.0975 45.365L33 51.4375L24.9025 45.365L27.6338 42.6338C27.8688 42.4 28 42.0812 28 41.75V40.955C28.2537 41.0375 28.5138 41.1025 28.7738 41.1725Z" fill="#9D2D26"/>
</svg>
